<svg id="Capa_1" enable-background="new 0 0 512 512" height="512" viewBox="0 0 512 512" width="512" xmlns="http://www.w3.org/2000/svg"><g><g><circle cx="184.997" cy="325.784" fill="#ffbdbc" r="108.064"/></g><g fill="#020288"><path d="m199.383 317.563c-1.285-.454-2.513-.892-3.688-1.314v-27.072c2.677 1.023 4.553 2.48 5.536 3.882 3.172 4.522 9.409 5.615 13.93 2.443s5.615-9.409 2.443-13.93c-4.281-6.1-11.939-11.223-21.909-13.047v-1.107c0-5.522-4.478-10-10-10s-10 4.478-10 10v1.836c-1.154.273-2.322.586-3.504.942-11.719 3.529-20.563 14.899-21.509 27.65-.937 12.62 5.769 23.58 17.936 29.318 1.584.747 4.009 1.76 7.077 2.965v32.849c-3.992-1.364-7.591-3.478-10-6.469-3.465-4.302-9.761-4.979-14.061-1.516-4.302 3.465-4.979 9.76-1.516 14.061 6.566 8.152 16.157 12.611 25.576 14.595v.499c0 5.522 4.478 10 10 10 5.441 0 9.868-4.347 9.997-9.758 16.598-2.462 28.312-13.153 30.178-27.842 2.12-16.691-8.771-32.722-26.486-38.985zm-28.756-18.237c.267-3.6 2.311-7.048 5.067-8.893v17.874c-3.646-2.162-5.349-5.177-5.067-8.981zm35.401 54.703c-.624 4.919-4.316 8.429-10.334 9.999v-26.347c7.994 4 11.012 11.018 10.334 16.348z"/><path d="m502 325.097h-132.03c-.644-28.751-13.807-68.292-36.341-108.991-19.062-34.429-42.572-65.666-66.212-88.306 2.831-1.766 4.715-4.908 4.715-8.49v-54.602c0-5.522-4.478-10-10-10h-13.718c.45-.588.89-1.164 1.315-1.718 10.189-13.301 21.737-28.377 25.136-40.235.864-3.019.262-6.267-1.628-8.773-1.889-2.507-4.846-3.982-7.986-3.982h-160.508c-3.14 0-6.097 1.475-7.986 3.981-1.889 2.507-2.491 5.756-1.627 8.773 3.398 11.857 14.945 26.933 25.133 40.232.425.555.867 1.132 1.317 1.721h-13.717c-5.522 0-10 4.478-10 10v54.602c0 3.619 1.923 6.789 4.803 8.545-23.637 22.676-47.165 53.969-66.265 88.464-23.133 41.78-36.401 82.225-36.401 110.968 0 52.055 18.497 99.189 52.085 132.722 33.582 33.527 80.785 51.992 132.912 51.992 57.72 0 107.837-21.992 141.554-61.242v51.242c0 5.522 4.478 10 10 10h165.449c5.522 0 10-4.478 10-10v-166.903c0-5.523-4.478-10-10-10zm-155.449 75.634h145.449v35.634h-145.449zm145.449-20h-145.449v-35.635h145.449zm-355.859-339.906c-4.811-6.28-10.664-13.922-15.157-20.825h128.027c-4.493 6.904-10.348 14.547-15.159 20.828-4.572 5.969-7.906 10.359-10.224 13.88h-77.262c-2.318-3.521-5.653-7.912-10.225-13.883zm-18.278 33.883h134.269v34.602h-134.269zm67.134 417.292c-97.147 0-164.997-67.732-164.997-164.714 0-25.084 12.672-62.945 33.897-101.279 21.796-39.362 49.416-74.116 75.776-95.349.512-.412.971-.865 1.38-1.349h67.343l-14.544 24.67c-2.805 4.758-1.222 10.889 3.535 13.693 4.759 2.806 10.89 1.221 13.693-3.535l11.567-19.62 24.835 54.876c1.672 3.694 5.309 5.88 9.116 5.88 1.379-.001 2.78-.287 4.117-.893 5.031-2.277 7.265-8.202 4.987-13.233l-27.986-61.838h11.341c.405.477.86.923 1.366 1.33 26.369 21.197 53.964 55.88 75.708 95.153 20.915 37.777 33.161 73.78 33.833 99.304h-13.415c-5.522 0-10 4.478-10 10v81.551c-28.669 47.895-80.232 75.353-141.552 75.353zm307.003 0h-145.449v-35.635h145.449z"/></g></g></svg>