<svg id="Capa_1" enable-background="new 0 0 512 512" height="512" viewBox="0 0 512 512" width="512" xmlns="http://www.w3.org/2000/svg"><g><g><path d="m324.455 342.727h145.82c22.366 0 41.185-17.611 41.714-39.97.545-23.033-18.032-41.945-40.942-41.945h-103.534l11.871-18.435c23.004-6.321 43.755-19.948 58.78-38.686 16.137-20.124 25.024-45.44 25.024-71.286 0-62.872-51.145-114.021-114.009-114.021s-114.008 51.149-114.008 114.021c0 25.846 8.888 51.162 25.025 71.287 15.025 18.736 35.776 32.364 58.779 38.685l21.724 33.736c.002.003.003.006.006.009 1.82 2.904 5.007 4.677 8.434 4.69h.04 121.348c11.349 0 21.028 8.808 21.457 20.148.451 11.923-9.116 21.767-20.939 21.767h-146.237c-23.303 0-43.07 19.063-42.924 42.365.071 11.343 4.6 21.983 12.755 29.916 7.999 7.781 18.867 11.904 30.027 11.904 29.128-.001 71.94-.002 104.036-.006 8.82-.001 17.428 3.218 23.764 9.355 6.577 6.372 10.208 14.996 10.208 24.207v.476c0 8.498-3.102 16.794-9.013 22.9-6.095 6.297-14.302 9.772-23.044 9.772l-288.909-.016 14.02-21.775c25.026-6.8 47.609-21.588 63.941-41.955 17.464-21.777 27.081-49.174 27.081-77.143 0-68.037-55.346-123.389-123.375-123.389s-123.375 55.352-123.375 123.389c0 27.969 9.617 55.366 27.081 77.143 16.332 20.367 38.916 35.155 63.941 41.955l23.874 37.076c.013.02.042.066.086.133 1.838 2.845 4.999 4.569 8.387 4.565h.004l307.243.018h.002c13.735 0 26.658-5.284 36.448-14.891 10.157-9.967 15.607-23.783 15.607-38.014v-.243c0-14.337-5.544-27.796-15.609-37.899-10.065-10.101-23.463-15.663-37.728-15.663h-.006c-32.247.004-75.57.005-104.893.006-5.787 0-11.447-2.06-15.647-6.041-4.57-4.332-7.04-10.259-6.902-16.552.267-12.086 10.48-21.593 22.567-21.593zm3.094-118.801c-42.615-10.032-72.378-47.668-72.378-91.521 0-51.843 42.172-94.021 94.009-94.021s94.009 42.178 94.009 94.021c0 43.854-29.763 81.489-72.378 91.521-2.52.593-4.713 2.142-6.115 4.32l-15.516 24.095-15.516-24.095c-1.402-2.178-3.595-3.726-6.115-4.32zm-227.958 209.442c-46.862-11.033-79.591-52.418-79.591-100.641 0-57.009 46.374-103.389 103.376-103.389 57.001 0 103.375 46.38 103.375 103.389 0 48.224-32.729 89.609-79.591 100.641-2.521.594-4.714 2.142-6.116 4.32l-17.668 27.439-17.67-27.44c-1.401-2.177-3.595-3.726-6.115-4.319z" fill="#020288"/></g><g fill="#ffbdbc"><ellipse cx="123.376" cy="332.727" rx="64.177" ry="64.185"/><ellipse cx="349.18" cy="132.405" rx="58.875" ry="58.882"/></g></g></svg>