<svg width="32" height="32" version="1.1" viewBox="0 0 8.4667 8.4667" xmlns="http://www.w3.org/2000/svg">
 <g>
  <rect x=".15034" y=".15034" width="8.1851" height="8.2018" ry="0" fill="#272727" stroke="#252525" stroke-linecap="square" stroke-width=".26458"/>
  <g fill="#fff" stroke="#fffffe" stroke-width=".051768">
   <circle cx="-5.44" cy="7.2752" r=".097323"/>
   <circle cx="-4.9565" cy="7.2752" r=".097323"/>
   <circle cx="-4.4724" cy="7.2752" r=".097323"/>
   <circle cx="-3.9889" cy="7.2752" r=".097323"/>
   <circle cx="-3.5054" cy="7.2752" r=".097323"/>
   <circle cx="-3.0219" cy="7.2752" r=".097323"/>
   <circle cx="-2.5379" cy="7.2747" r=".097323"/>
   <circle cx="-2.0544" cy="7.2742" r=".097323"/>
   <circle cx="-1.5709" cy="7.2716" r=".097323"/>
   <circle cx="-1.0868" cy="7.2628" r=".097323"/>
   <circle cx="-.60332" cy="7.2374" r=".097323"/>
   <circle cx="-.11981" cy="7.1732" r=".097323"/>
   <circle cx=".36421" cy="7.0283" r=".097323"/>
   <circle cx=".84772" cy="6.7441" r=".097323"/>
   <circle cx="1.3312" cy="6.2507" r=".097323"/>
   <circle cx="1.8147" cy="5.4996" r=".097323"/>
   <circle cx="2.2988" cy="4.5015" r=".097323"/>
   <circle cx="2.7823" cy="3.359" r=".097323"/>
   <circle cx="3.2658" cy="2.2713" r=".097323"/>
   <circle cx="3.7498" cy="1.4814" r=".097323"/>
   <circle cx="4.2333" cy="1.1915" r=".097323"/>
   <circle cx="4.7168" cy="1.4814" r=".097323"/>
   <circle cx="5.2009" cy="2.2713" r=".097323"/>
   <circle cx="5.6844" cy="3.359" r=".097323"/>
   <circle cx="6.1679" cy="4.5015" r=".097323"/>
   <circle cx="6.6519" cy="5.4996" r=".097323"/>
   <circle cx="7.1354" cy="6.2507" r=".097323"/>
   <circle cx="7.6189" cy="6.7441" r=".097323"/>
   <circle cx="8.1025" cy="7.0283" r=".097323"/>
   <circle cx="8.5865" cy="7.1732" r=".097323"/>
   <circle cx="9.07" cy="7.2374" r=".097323"/>
   <circle cx="9.5535" cy="7.2628" r=".097323"/>
   <circle cx="10.038" cy="7.2716" r=".097323"/>
   <circle cx="10.521" cy="7.2742" r=".097323"/>
   <circle cx="11.005" cy="7.2747" r=".097323"/>
   <circle cx="11.489" cy="7.2752" r=".097323"/>
   <circle cx="11.972" cy="7.2752" r=".097323"/>
   <circle cx="12.456" cy="7.2752" r=".097323"/>
   <circle cx="12.939" cy="7.2752" r=".097323"/>
   <circle cx="13.423" cy="7.2752" r=".097323"/>
   <circle cx="13.907" cy="7.2752" r=".097323"/>
  </g>
 </g>
</svg>
