<svg width="32" height="32" version="1.1" viewBox="0 0 8.4667 8.4667" xmlns="http://www.w3.org/2000/svg">
 <rect x=".15034" y=".15034" width="8.1851" height="8.2018" ry="0" fill="#272727" stroke="#272727" stroke-linecap="square" stroke-width=".26458"/>
 <path d="m-2.1443 5.7273c0.086768-0.00413 0.17353-0.0089 0.26031-0.014559 0.086768-0.00566 0.17353-0.012197 0.26031-0.019826 0.086768-0.00763 0.17353-0.016367 0.26031-0.026532 0.086768-0.010124 0.17353-0.021681 0.26031-0.034927 0.086768-0.013289 0.17353-0.028261 0.26031-0.045261 0.086768-0.017 0.17358-0.036108 0.26036-0.057578 0.086768-0.02147 0.17353-0.045346 0.26031-0.07192 0.086768-0.026617 0.17353-0.055934 0.26031-0.08833 0.086768-0.032354 0.17353-0.067746 0.26031-0.10638 0.086768-0.038639 0.17353-0.080567 0.26031-0.12583 0.086768-0.045261 0.17353-0.093897 0.26031-0.14591 0.086768-0.051969 0.17353-0.10731 0.26031-0.16582 0.086768-0.058507 0.17353-0.12018 0.26031-0.18459 0.086768-0.064454 0.17353-0.13165 0.26031-0.20104 0.086768-0.069339 0.17353-0.14092 0.26031-0.21382 0.086768-0.072933 0.17353-0.14722 0.26031-0.22192 0.086768-0.074662 0.17353-0.1497 0.26031-0.22399 0.086768-0.074284 0.17353-0.14781 0.26031-0.2193 0.086768-0.071499 0.17353-0.14102 0.26031-0.2072 0.086768-0.066225 0.17353-0.12912 0.26031-0.1875 0.086768-0.05838 0.17353-0.1122 0.26031-0.16042 0.086768-0.048257 0.17353-0.090818 0.26031-0.12684 0.086768-0.036023 0.17353-0.065467 0.26031-0.087739 0.086768-0.022272 0.17353-0.037331 0.26031-0.044882 0.086768-0.00755 0.17353-0.00755 0.26031 0 0.086768 0.0075 0.17353 0.02261 0.26031 0.044882 0.086768 0.022272 0.17353 0.051758 0.26031 0.087739 0.086768 0.036024 0.17353 0.078628 0.26031 0.12684 0.086768 0.048173 0.17353 0.10204 0.26031 0.16042 0.086768 0.05838 0.17353 0.12132 0.26031 0.1875 0.086768 0.066183 0.17358 0.1357 0.26036 0.2072 0.086768 0.071499 0.17353 0.14502 0.26031 0.2193 0.086768 0.074282 0.17353 0.14932 0.26031 0.22399 0.086768 0.074705 0.17353 0.14899 0.26031 0.22192 0.086768 0.072933 0.17353 0.14447 0.26031 0.21382 0.086768 0.069389 0.17353 0.13659 0.26031 0.20104 0.086768 0.064413 0.17353 0.12608 0.26031 0.18459 0.086768 0.058507 0.17353 0.11385 0.26031 0.16582 0.086768 0.05201 0.17353 0.10065 0.26031 0.14591 0.086768 0.045305 0.17353 0.087191 0.26031 0.12583 0.086768 0.038639 0.17353 0.07403 0.26031 0.10638 0.086768 0.032396 0.17353 0.061713 0.26031 0.08833 0.086768 0.026617 0.17353 0.05045 0.26031 0.07192 0.086768 0.02147 0.17353 0.040537 0.26031 0.057578 0.086768 0.017042 0.17353 0.031973 0.26031 0.045261 0.086768 0.013241 0.17353 0.024803 0.26031 0.034927 0.086768 0.010172 0.17353 0.018898 0.26031 0.026532 0.08677 0.00763 0.17353 0.014173 0.26031 0.019826 0.08677 0.00566 0.17353 0.010413 0.26031 0.014559" fill="none" stroke="#fff" stroke-width=".2466" title="t (1 /sqrt(2*pi)) * exp(-pow(t,2)/2)"/>
</svg>
